<svg width="320" height="107" viewBox="0 0 320 107" fill="none" xmlns="http://www.w3.org/2000/svg">
<path fill-rule="evenodd" clip-rule="evenodd" d="M2 16C2 16 2 16 2 16C1.99998 21.1722 72.9629 107 160.5 107C248.037 107 319 16 319 16H292.46C292.299 16.1718 292.137 16.345 291.973 16.5195C284.444 24.5277 273.552 35.1988 260.148 45.8305C232.825 67.5022 197.598 87 160.5 87C123.062 87 87.7162 68.4696 60.6316 47.5977C47.2947 37.3201 36.534 26.9102 29.2172 18.9064C28.2848 17.8865 27.4179 16.916 26.6168 16C26.6168 16 26.6168 16 26.6168 16H2Z" fill="#D19A7B"/>
<path d="M10.2766 10.5529L12.0094 11.6418C99.9571 66.91 211.273 68.9501 301.187 16.9417L309.652 12.0452" stroke="#D19A7B" stroke-width="20" stroke-linecap="round"/>
</svg>
