<svg width="317" height="182" viewBox="0 0 317 182" fill="none" xmlns="http://www.w3.org/2000/svg">
<path d="M303.949 91C302.153 93.0537 299.911 95.5474 297.259 98.3691C289.484 106.639 278.235 117.662 264.362 128.665C236.359 150.876 198.934 172 158.5 172C117.897 172 80.4113 152.006 52.5276 130.519C38.6884 119.854 27.5051 109.042 19.8365 100.654C16.2777 96.7607 13.5393 93.4588 11.6742 91C13.5393 88.5412 16.2778 85.2393 19.8365 81.3464C27.5051 72.9577 38.6885 62.146 52.5276 51.4814C80.4113 29.9937 117.897 10 158.5 10C198.934 10 236.359 31.1239 264.362 53.3348C278.235 64.3381 289.484 75.3612 297.259 83.6309C299.911 86.4526 302.153 88.9463 303.949 91Z" stroke="#000000" stroke-width="20"/>
<path d="M239 91C239 134.525 203.288 170 159 170C114.712 170 79 134.525 79 91C79 47.4746 114.712 12 159 12C203.288 12 239 47.4746 239 91Z" stroke="#000000" stroke-width="20"/>
<path fill-rule="evenodd" clip-rule="evenodd" d="M159 146C189.376 146 214 121.376 214 91C214 60.6243 189.376 36 159 36C150.313 36 142.097 38.0139 134.792 41.6002C136.795 41.2069 138.872 41 141 41C157.569 41 171 53.536 171 69C171 84.464 157.569 97 141 97C124.431 97 111 84.464 111 69C111 66.9012 111.247 64.8563 111.717 62.8894C106.815 71.1156 104 80.729 104 91C104 121.376 128.624 146 159 146Z" fill="#000000"/>
</svg>
