<svg width="321" height="108" viewBox="0 0 321 108" fill="none" xmlns="http://www.w3.org/2000/svg">
<path fill-rule="evenodd" clip-rule="evenodd" d="M3 17C3 17 3 17 3 17C2.99998 22.1722 73.9629 108 161.5 108C249.037 108 320 17 320 17H293.46C293.299 17.1718 293.137 17.345 292.973 17.5195C285.444 25.5277 274.552 36.1988 261.148 46.8305C233.825 68.5022 198.598 88 161.5 88C124.062 88 88.7162 69.4696 61.6316 48.5977C48.2947 38.3201 37.534 27.9102 30.2172 19.9064C29.2848 18.8865 28.4179 17.916 27.6168 17C27.6168 17 27.6168 17 27.6168 17H3Z" fill="#D19A7B"/>
<path fill-rule="evenodd" clip-rule="evenodd" d="M72 17C72 66.1533 112.294 106 162 106C211.706 106 252 66.1533 252 17H232C232 54.8976 200.871 86 162 86C123.129 86 92 54.8976 92 17H72Z" fill="#D19A7B"/>
<path fill-rule="evenodd" clip-rule="evenodd" d="M107 17C107 47.3757 131.624 72 162 72C192.376 72 217 47.3757 217 17H162.56C157.453 20.7577 151.007 23 144 23C136.993 23 130.547 20.7577 125.44 17H107Z" fill="#D19A7B"/>
<path d="M10.5 10.5L311 12" stroke="#D19A7B" stroke-width="20" stroke-linecap="round"/>
</svg>
